<?xml version="1.0" standalone="no"?><!DOCTYPE svg PUBLIC "-//W3C//DTD SVG 1.1//EN" "http://www.w3.org/Graphics/SVG/1.1/DTD/svg11.dtd"><svg t="1577240726072" class="icon" viewBox="0 0 1024 1024" version="1.1" xmlns="http://www.w3.org/2000/svg" p-id="1938" xmlns:xlink="http://www.w3.org/1999/xlink" width="200" height="200"><defs><style type="text/css"></style></defs><path d="M614.4 477.86666667c-20.48 0-34.13333333 13.65333333-34.13333333 34.13333333 0 75.09333333-61.44 136.53333333-136.53333334 136.53333333H238.93333333c-75.09333333 0-136.53333333-61.44-136.53333333-136.53333333s61.44-136.53333333 136.53333333-136.53333333h102.4c20.48 0 34.13333333-13.65333333 34.13333334-34.13333334S361.81333333 307.2 341.33333333 307.2H238.93333333C122.88 307.2 34.13333333 395.94666667 34.13333333 512s88.74666667 204.8 204.8 204.8h204.8c116.05333333 0 204.8-88.74666667 204.8-204.8 0-20.48-13.65333333-34.13333333-34.13333333-34.13333333z" p-id="1939" fill="#1296db"></path><path d="M785.06666667 307.2H580.26666667C464.21333333 307.2 375.46666667 395.94666667 375.46666667 512c0 20.48 13.65333333 34.13333333 34.13333333 34.13333333S443.73333333 532.48 443.73333333 512c0-75.09333333 61.44-136.53333333 136.53333334-136.53333333h204.8c75.09333333 0 136.53333333 61.44 136.53333333 136.53333333s-61.44 136.53333333-136.53333333 136.53333333h-102.4c-20.48 0-34.13333333 13.65333333-34.13333334 34.13333334s13.65333333 34.13333333 34.13333334 34.13333333H785.06666667c116.05333333 0 204.8-88.74666667 204.8-204.8s-88.74666667-204.8-204.8-204.8z" p-id="1940" fill="#1296db"></path></svg>